<svg width="53" height="13" viewBox="0 0 53 13" fill="none" xmlns="http://www.w3.org/2000/svg">
<path d="M0 12.3667V0H3.53333V10.6H10.6V12.3667H0ZM17.6667 1.76667V0H21.2V1.76667H17.6667ZM14.1333 12.3667V10.6H17.6667V5.3H15.9V3.53333H21.2V10.6H24.7333V12.3667H14.1333ZM26.5 12.3667V0H30.0333V7.06667H33.5667V5.3H35.3333V3.53333H38.8667V5.3H37.1V7.06667H35.3333V8.83333H37.1V10.6H38.8667V12.3667H35.3333V10.6H33.5667V8.83333H30.0333V12.3667H26.5ZM42.4 12.3667V10.6H40.6333V5.3H42.4V3.53333H51.2333V5.3H53V8.83333H44.1667V10.6H51.2333V12.3667H42.4ZM44.1667 7.06667H49.4667V5.3H44.1667V7.06667Z" fill="black"/>
</svg>
